<svg xmlns="http://www.w3.org/2000/svg" width="960" height="560" viewBox="0 0 960 560">
<rect width="100%" height="100%" fill="#ffffff"/>
<rect x="70" y="30" width="866" height="482" fill="#f8fafc" stroke="#d0d7de"/>
<text x="70" y="20" font-size="16" font-family="Helvetica,Arial,sans-serif" fill="#111827">Shell Sweep: mean density vs wall thickness</text>
<line x1="70" y1="512.00" x2="936" y2="512.00" stroke="#e5e7eb" stroke-width="1"/>
<text x="62" y="516.00" font-size="11" text-anchor="end" font-family="Helvetica,Arial,sans-serif" fill="#4b5563">0.808</text>
<line x1="70" y1="415.60" x2="936" y2="415.60" stroke="#e5e7eb" stroke-width="1"/>
<text x="62" y="419.60" font-size="11" text-anchor="end" font-family="Helvetica,Arial,sans-serif" fill="#4b5563">0.820</text>
<line x1="70" y1="319.20" x2="936" y2="319.20" stroke="#e5e7eb" stroke-width="1"/>
<text x="62" y="323.20" font-size="11" text-anchor="end" font-family="Helvetica,Arial,sans-serif" fill="#4b5563">0.833</text>
<line x1="70" y1="222.80" x2="936" y2="222.80" stroke="#e5e7eb" stroke-width="1"/>
<text x="62" y="226.80" font-size="11" text-anchor="end" font-family="Helvetica,Arial,sans-serif" fill="#4b5563">0.845</text>
<line x1="70" y1="126.40" x2="936" y2="126.40" stroke="#e5e7eb" stroke-width="1"/>
<text x="62" y="130.40" font-size="11" text-anchor="end" font-family="Helvetica,Arial,sans-serif" fill="#4b5563">0.857</text>
<line x1="70" y1="30.00" x2="936" y2="30.00" stroke="#e5e7eb" stroke-width="1"/>
<text x="62" y="34.00" font-size="11" text-anchor="end" font-family="Helvetica,Arial,sans-serif" fill="#4b5563">0.869</text>
<circle cx="70.00" cy="30.00" r="3.5" fill="#0c7bdc"/>
<circle cx="243.20" cy="86.05" r="3.5" fill="#0c7bdc"/>
<circle cx="416.40" cy="148.64" r="3.5" fill="#0c7bdc"/>
<circle cx="589.60" cy="244.57" r="3.5" fill="#0c7bdc"/>
<circle cx="762.80" cy="375.54" r="3.5" fill="#0c7bdc"/>
<circle cx="936.00" cy="512.00" r="3.5" fill="#0c7bdc"/>
<polyline points="70.00,30.00 243.20,86.05 416.40,148.64 589.60,244.57 762.80,375.54 936.00,512.00" fill="none" stroke="#0c7bdc" stroke-width="2.5"/>
<line x1="756" y1="48" x2="774" y2="48" stroke="#0c7bdc" stroke-width="2.5"/>
<text x="780" y="52" font-size="12" font-family="Helvetica,Arial,sans-serif" fill="#111827">square</text>
<line x1="70.00" y1="512" x2="70.00" y2="517" stroke="#6b7280"/>
<text x="70.00" y="532" font-size="11" text-anchor="middle" font-family="Helvetica,Arial,sans-serif" fill="#4b5563">2</text>
<line x1="243.20" y1="512" x2="243.20" y2="517" stroke="#6b7280"/>
<text x="243.20" y="532" font-size="11" text-anchor="middle" font-family="Helvetica,Arial,sans-serif" fill="#4b5563">3</text>
<line x1="416.40" y1="512" x2="416.40" y2="517" stroke="#6b7280"/>
<text x="416.40" y="532" font-size="11" text-anchor="middle" font-family="Helvetica,Arial,sans-serif" fill="#4b5563">4</text>
<line x1="589.60" y1="512" x2="589.60" y2="517" stroke="#6b7280"/>
<text x="589.60" y="532" font-size="11" text-anchor="middle" font-family="Helvetica,Arial,sans-serif" fill="#4b5563">5</text>
<line x1="762.80" y1="512" x2="762.80" y2="517" stroke="#6b7280"/>
<text x="762.80" y="532" font-size="11" text-anchor="middle" font-family="Helvetica,Arial,sans-serif" fill="#4b5563">6</text>
<line x1="936.00" y1="512" x2="936.00" y2="517" stroke="#6b7280"/>
<text x="936.00" y="532" font-size="11" text-anchor="middle" font-family="Helvetica,Arial,sans-serif" fill="#4b5563">7</text>
<text x="503.00" y="550" font-size="12" text-anchor="middle" font-family="Helvetica,Arial,sans-serif" fill="#374151">Wall thickness (mm)</text>
</svg>